<svg width="1920" height="1080" viewBox="0 0 1920 1080" fill="none" xmlns="http://www.w3.org/2000/svg"><g clip-path="url(#clip0_831_4642)"><path d="M683.431 933.263C662.724 930.817 370.135 883.519 477.257 791.126C355.705 845.436 401.522 904.151 594.651 937.422C705.85 956.586 850.31 965.067 990.938 958.054C1022.24 956.504 1053.47 954.139 1084.04 951.041C1050.21 952.345 1019.47 952.998 990.938 953.242C876.561 954.058 796.504 946.555 683.349 933.263H683.431Z" fill="#03FC9D"/><path d="M990.938 706.479C704.301 706.479 471.877 758.507 471.877 822.603C471.877 886.7 704.301 938.727 990.938 938.727C1277.58 938.727 1510 886.7 1510 822.603C1510 758.507 1277.58 706.479 990.938 706.479ZM990.938 913.936C765.525 913.936 582.749 873 582.749 822.603C582.749 772.207 765.607 731.27 990.938 731.27C1216.27 731.27 1399.13 772.207 1399.13 822.603C1399.13 873 1216.27 913.936 990.938 913.936Z" fill="#03FC9D"/><path d="M1321.27 787.375C1410.95 848.617 1166.05 880.013 1148.69 881.562C1089.99 887.026 1041.89 891.022 990.938 893.142C939.334 895.262 884.876 895.507 813.461 893.386C871.425 898.116 931.834 900.073 990.938 899.584C1074.99 898.932 1156.19 893.468 1222.96 884.335C1384.62 862.235 1422.93 823.337 1321.19 787.375H1321.27Z" fill="#03FC9D"/><path fill-rule="evenodd" clip-rule="evenodd" d="M1252.38 808.495C1105.56 696.041 1370.35 561.243 1336.03 544.526C1267.14 510.765 1244.72 623.382 1222.3 598.184C1196.7 569.479 1173.63 625.829 1160.1 641.078C1082.24 728.986 990.449 686.5 954.089 574.535C924.007 481.897 880.474 543.466 887.566 608.867C893.843 666.766 856.587 733.39 810.363 673.29C776.368 629.091 774.33 645.156 741.72 649.722C695.252 656.164 668.756 572.986 634.435 608.948C618.456 625.666 644.707 634.147 665.985 656.491C706.583 699.303 760.797 761.198 681.637 814.938C851.777 875.038 1166.3 857.016 1252.38 808.495Z" fill="#03FC9D"/><path fill-rule="evenodd" clip-rule="evenodd" d="M1219.86 805.804C1173.14 817.547 1081.76 827.985 987.922 828.067C878.191 828.23 773.351 804.418 753.541 746.275C714.41 631.456 636.391 645.156 646.908 610.335C626.201 617.266 660.93 641.731 672.669 651.19C690.849 665.787 729.573 715.205 732.182 738.283C735.198 764.786 715.959 797.976 743.758 810.289C775.063 824.152 853.652 837.282 903.626 839.565C1002.35 844.213 1141.02 838.75 1219.86 805.804Z" fill="white"/><path fill-rule="evenodd" clip-rule="evenodd" d="M794.385 756.06C794.385 730.536 768.705 707.213 757.047 688.539C746.693 671.985 756.232 644.993 780.526 656.246C755.579 653.229 773.759 692.127 778.488 699.466C790.553 718.467 806.776 740.811 794.385 756.142V756.06Z" fill="white"/><path fill-rule="evenodd" clip-rule="evenodd" d="M926.698 538.328C890.501 530.01 900.202 602.017 900.447 625.829C900.61 647.194 898.083 662.851 889.197 683.157C883.409 696.367 857.076 717.325 839.467 710.72C861.805 741.953 899.224 716.754 906.398 675.328C910.393 652.74 909.985 620.365 908.681 591.334C907.458 564.097 911.697 537.513 926.698 538.328Z" fill="white"/><path fill-rule="evenodd" clip-rule="evenodd" d="M1218.8 612.292C1205.92 570.54 1175.83 645.89 1155.53 663.667C1116.32 698.08 1087.22 703.87 1034.72 694.981C1095.04 716.184 1146.57 699.059 1180.56 650.212C1197.76 625.503 1207.3 603.811 1218.72 612.292H1218.8Z" fill="white"/><path fill-rule="evenodd" clip-rule="evenodd" d="M1331.06 547.462C1286.62 532.62 1274.07 570.621 1256.3 592.639C1240.07 612.618 1188.8 652.576 1188.8 682.341C1206.98 647.928 1230.37 622.893 1259.89 602.343C1283.04 586.197 1294.13 544.037 1331.14 547.462H1331.06Z" fill="white"/><path fill-rule="evenodd" clip-rule="evenodd" d="M671.854 152.383C705.279 152.383 732.345 179.457 732.345 212.891C732.345 246.326 705.279 273.4 671.854 273.4C638.43 273.4 611.364 246.326 611.364 212.891C611.364 179.457 638.43 152.383 671.854 152.383Z" fill="#03FC9D"/><path d="M651.066 178.152C652.696 178.152 654.327 177.989 656.039 177.581C661.175 176.439 665.985 173.748 668.104 170.486C670.876 166.246 667.697 162.903 661.012 162.903C659.381 162.903 657.751 163.066 656.039 163.473C650.903 164.615 646.093 167.306 644.055 170.568C641.283 174.809 644.462 178.233 651.147 178.233L651.066 178.152Z" fill="white"/><path d="M678.05 253.665C670.142 253.665 662.642 252.034 655.957 249.017C650.577 246.57 645.685 243.227 641.527 239.231C632.234 230.098 626.69 217.458 627.261 203.432C627.668 193.809 630.929 184.839 636.147 177.173C627.016 186.144 621.31 198.539 621.31 212.32C621.31 228.63 629.217 243.064 641.446 252.034C645.767 255.214 650.658 257.661 655.876 259.292C660.522 260.76 665.414 261.494 670.55 261.494C684.817 261.494 697.616 255.459 706.583 245.755C698.186 250.729 688.404 253.583 677.969 253.583L678.05 253.665Z" fill="white"/><g clip-path="url(#clip1_831_4642)"><path fill-rule="evenodd" clip-rule="evenodd" d="M688.663 206.826C691.583 210.538 693.329 215.233 693.329 220.34C693.329 225.447 691.53 230.285 688.534 234.018L688.274 234.341L688.206 233.932C688.147 233.585 688.08 233.233 688 232.881C686.499 226.203 681.61 220.478 673.562 215.839C668.127 212.716 665.016 208.959 664.199 204.685C663.671 201.922 664.063 199.148 664.821 196.771C665.579 194.396 666.705 192.404 667.664 191.207L670.796 187.33C671.344 186.649 672.373 186.649 672.922 187.33L688.666 206.826H688.663ZM693.615 202.953L672.63 176.97C672.229 176.474 671.48 176.474 671.079 176.97L650.097 202.953L650.029 203.039C646.169 207.892 643.857 214.06 643.857 220.773C643.857 236.408 656.393 249.082 671.854 249.082C687.316 249.082 699.852 236.408 699.852 220.773C699.852 214.06 697.54 207.892 693.68 203.042L693.612 202.956L693.615 202.953ZM655.119 206.743L656.995 204.416L657.051 204.846C657.095 205.187 657.151 205.527 657.216 205.87C658.431 212.324 662.769 217.703 670.02 221.869C676.325 225.504 679.996 229.682 681.052 234.263C681.494 236.175 681.571 238.056 681.379 239.702L681.368 239.803L681.276 239.848C678.431 241.255 675.231 242.046 671.851 242.046C659.994 242.046 650.38 232.328 650.38 220.337C650.38 215.188 652.152 210.461 655.113 206.737L655.119 206.743Z" fill="#003B2F"/></g><path fill-rule="evenodd" clip-rule="evenodd" d="M1390.41 333.399C1418.78 333.399 1441.69 356.396 1441.69 384.693C1441.69 412.99 1418.78 435.986 1390.41 435.986C1362.04 435.986 1339.13 412.99 1339.13 384.693C1339.13 356.396 1362.12 333.399 1390.41 333.399Z" fill="#03FC9D"/><path d="M1395.71 419.269C1388.94 419.269 1382.58 417.882 1376.96 415.273C1372.39 413.234 1368.24 410.38 1364.73 406.955C1356.82 399.208 1352.18 388.525 1352.67 376.619C1352.99 368.465 1355.76 360.799 1360.25 354.357C1352.5 361.941 1347.69 372.542 1347.69 384.203C1347.69 397.985 1354.38 410.299 1364.73 417.882C1368.4 420.574 1372.56 422.694 1376.96 424.08C1380.87 425.303 1385.11 425.956 1389.35 425.956C1401.42 425.956 1412.26 420.818 1419.92 412.663C1412.83 416.822 1404.51 419.269 1395.63 419.269H1395.71Z" fill="white"/><path d="M1372.8 355.254C1374.19 355.254 1375.57 355.091 1376.96 354.765C1381.28 353.786 1385.44 351.503 1387.15 348.812C1389.51 345.224 1386.82 342.369 1381.2 342.369C1379.81 342.369 1378.43 342.533 1376.96 342.859C1372.64 343.837 1368.56 346.121 1366.77 348.812C1364.4 352.4 1367.09 355.254 1372.72 355.254H1372.8Z" fill="white"/><path d="M1362.61 366.181C1363.34 366.181 1364.08 366.1 1364.81 365.937C1367.09 365.447 1369.21 364.224 1370.11 362.838C1371.33 360.962 1369.95 359.494 1367.01 359.494C1366.28 359.494 1365.55 359.576 1364.81 359.739C1362.53 360.228 1360.41 361.452 1359.51 362.838C1358.29 364.713 1359.68 366.181 1362.61 366.181Z" fill="white"/><g clip-path="url(#clip2_831_4642)"><path fill-rule="evenodd" clip-rule="evenodd" d="M1403.15 380.097C1405.36 382.91 1406.68 386.467 1406.68 390.336C1406.68 394.206 1405.32 397.871 1403.05 400.7L1402.85 400.944L1402.8 400.634C1402.76 400.372 1402.7 400.105 1402.64 399.838C1401.51 394.778 1397.8 390.44 1391.7 386.926C1387.59 384.56 1385.23 381.713 1384.61 378.475C1384.21 376.382 1384.51 374.28 1385.08 372.479C1385.66 370.68 1386.51 369.171 1387.24 368.263L1389.61 365.326C1390.02 364.81 1390.8 364.81 1391.22 365.326L1403.15 380.097H1403.15ZM1406.9 377.163L1391 357.477C1390.69 357.101 1390.13 357.101 1389.82 357.477L1373.93 377.163L1373.87 377.228C1370.95 380.905 1369.2 385.578 1369.2 390.664C1369.2 402.51 1378.7 412.113 1390.41 412.113C1402.13 412.113 1411.62 402.51 1411.62 390.664C1411.62 385.578 1409.87 380.905 1406.95 377.23L1406.9 377.165L1406.9 377.163ZM1377.73 380.034L1379.15 378.271L1379.19 378.597C1379.23 378.855 1379.27 379.113 1379.32 379.373C1380.24 384.263 1383.53 388.338 1389.02 391.495C1393.8 394.249 1396.58 397.414 1397.38 400.885C1397.71 402.333 1397.77 403.759 1397.63 405.006L1397.62 405.083L1397.55 405.117C1395.39 406.182 1392.97 406.782 1390.41 406.782C1381.42 406.782 1374.14 399.419 1374.14 390.334C1374.14 386.433 1375.48 382.851 1377.73 380.03L1377.73 380.034Z" fill="#003B2F"/></g><path fill-rule="evenodd" clip-rule="evenodd" d="M751.666 534.659C766.748 534.659 778.976 546.891 778.976 561.977C778.976 577.063 766.748 589.296 751.666 589.296C736.584 589.296 724.355 577.063 724.355 561.977C724.355 546.891 736.584 534.659 751.666 534.659Z" fill="#03FC9D"/><path d="M754.519 580.407C750.932 580.407 747.59 579.673 744.573 578.287C742.128 577.145 739.927 575.677 738.052 573.883C733.812 569.806 731.367 564.016 731.611 557.737C731.774 553.415 733.242 549.337 735.606 545.912C731.448 549.908 728.921 555.535 728.921 561.814C728.921 569.153 732.508 575.759 737.97 579.754C739.927 581.222 742.128 582.282 744.492 583.016C746.612 583.669 748.813 583.995 751.095 583.995C757.536 583.995 763.324 581.222 767.4 576.9C763.65 579.102 759.166 580.407 754.438 580.407H754.519Z" fill="white"/><path fill-rule="evenodd" clip-rule="evenodd" d="M1216.19 497.799C1231.27 497.799 1243.5 510.031 1243.5 525.118C1243.5 540.204 1231.27 552.436 1216.19 552.436C1201.11 552.436 1188.88 540.204 1188.88 525.118C1188.88 510.031 1201.11 497.799 1216.19 497.799Z" fill="#03FC9D"/><path d="M1206.81 509.46C1207.55 509.46 1208.36 509.379 1209.1 509.216C1211.38 508.727 1213.58 507.503 1214.48 506.035C1215.7 504.16 1214.31 502.61 1211.3 502.61C1210.56 502.61 1209.83 502.692 1209.1 502.855C1206.81 503.344 1204.61 504.568 1203.72 506.035C1202.49 507.911 1203.88 509.46 1206.89 509.46H1206.81Z" fill="white"/><path d="M1201.35 515.25C1201.35 515.25 1202.17 515.25 1202.57 515.087C1203.8 514.843 1204.94 514.19 1205.43 513.375C1206.08 512.396 1205.35 511.581 1203.8 511.581C1203.39 511.581 1202.98 511.581 1202.66 511.744C1201.43 511.988 1200.29 512.641 1199.8 513.375C1199.15 514.353 1199.97 515.169 1201.43 515.169L1201.35 515.25Z" fill="white"/><path fill-rule="evenodd" clip-rule="evenodd" d="M522.668 362.838C565.693 362.838 600.533 397.688 600.533 440.725C600.533 483.763 565.693 518.612 522.668 518.612C479.643 518.612 444.804 483.763 444.804 440.725C444.804 397.688 479.643 362.838 522.668 362.838Z" fill="#03FC9D"/><g clip-path="url(#clip3_831_4642)"><path fill-rule="evenodd" clip-rule="evenodd" d="M545.248 432.65C549.135 437.593 551.459 443.843 551.459 450.642C551.459 457.441 549.064 463.882 545.075 468.852L544.729 469.282L544.639 468.737C544.561 468.276 544.471 467.807 544.364 467.338C542.366 458.447 535.857 450.825 525.142 444.65C517.906 440.491 513.765 435.489 512.677 429.8C511.974 426.122 512.496 422.428 513.505 419.263C514.515 416.102 516.014 413.45 517.29 411.856L521.46 406.695C522.19 405.788 523.56 405.788 524.29 406.695L545.252 432.65H545.248ZM551.84 427.493L523.902 392.902C523.368 392.242 522.37 392.242 521.837 392.902L493.903 427.493L493.812 427.609C488.673 434.07 485.595 442.281 485.595 451.219C485.595 472.033 502.285 488.908 522.869 488.908C543.454 488.908 560.143 472.033 560.143 451.219C560.143 442.281 557.065 434.07 551.926 427.613L551.836 427.497L551.84 427.493ZM500.589 432.539L503.086 429.442L503.16 430.014C503.219 430.468 503.294 430.921 503.38 431.378C504.998 439.97 510.773 447.131 520.427 452.678C528.821 457.517 533.709 463.079 535.114 469.179C535.703 471.723 535.806 474.228 535.55 476.419L535.535 476.554L535.413 476.614C531.624 478.486 527.364 479.54 522.865 479.54C507.078 479.54 494.279 466.602 494.279 450.638C494.279 443.784 496.639 437.489 500.581 432.531L500.589 432.539Z" fill="#003B2F"/></g><path d="M495.909 395.903C498.008 395.903 500.107 395.693 502.31 395.168C508.921 393.699 515.113 390.235 517.841 386.036C521.409 380.578 517.316 376.169 508.711 376.169C506.613 376.169 504.409 376.484 502.31 376.904C495.699 378.373 489.508 381.837 486.884 386.036C483.316 391.494 487.409 395.903 496.014 395.903H495.909Z" fill="white"/><path d="M480.378 412.593C481.427 412.593 482.582 412.488 483.736 412.173C487.094 411.439 490.452 409.549 491.816 407.45C493.705 404.616 491.501 402.306 487.094 402.306C486.045 402.306 484.89 402.411 483.736 402.726C480.273 403.461 477.02 405.35 475.656 407.45C473.767 410.284 475.971 412.593 480.378 412.593Z" fill="white"/><path d="M350.466 227.763H300.704C316.375 227.763 329.301 214.999 329.301 199.165C329.301 183.332 316.537 170.568 300.704 170.568H157.717C142.045 170.568 129.12 183.332 129.12 199.165H85.1739C69.502 199.165 56.5767 211.929 56.5767 227.763C56.5767 243.596 69.3404 256.36 85.1739 256.36H178.882C178.882 272.032 191.646 284.957 207.48 284.957H350.466C366.138 284.957 379.063 272.193 379.063 256.36C379.063 240.526 366.299 227.763 350.466 227.763Z" fill="#03FC9D"/><path d="M-43.9171 323.733L204.734 323.733C232.127 323.733 254.334 301.525 254.334 274.132C254.334 246.738 232.127 224.531 204.734 224.531L-43.9171 224.531C-71.3109 224.531 -93.518 246.738 -93.518 274.132C-93.518 301.525 -71.3109 323.733 -43.9171 323.733Z" fill="#E6E8EA"/><path d="M1532.3 619.339H1654.76C1668.22 619.339 1679.14 608.426 1679.14 594.964V594.881C1679.14 581.419 1668.22 570.506 1654.76 570.506H1532.3C1518.84 570.506 1507.93 581.419 1507.93 594.881V594.964C1507.93 608.426 1518.84 619.339 1532.3 619.339Z" fill="#E6E8EA"/><path d="M1598.71 581.865H1799.19C1821.26 581.865 1839.15 563.973 1839.15 541.902C1839.15 519.832 1821.26 501.94 1799.19 501.94H1598.71C1576.64 501.94 1558.75 519.832 1558.75 541.902C1558.75 563.973 1576.64 581.865 1598.71 581.865Z" fill="#E6E8EA"/><path d="M1597.68 235.053H1679.14" stroke="#003B2F" stroke-width="3" stroke-linecap="round" stroke-linejoin="round"/><path d="M1535.84 235.053H1556.37" stroke="#003B2F" stroke-width="3" stroke-linecap="round" stroke-linejoin="round"/><path d="M1415.63 160.329L1434.89 179.59" stroke="#003B2F" stroke-width="3" stroke-linecap="round" stroke-linejoin="round"/><path d="M1448.93 193.63L1468.19 212.891" stroke="#003B2F" stroke-width="3" stroke-linecap="round" stroke-linejoin="round"/><path d="M1415.63 212.891L1434.89 193.63" stroke="#003B2F" stroke-width="3" stroke-linecap="round" stroke-linejoin="round"/><path d="M1448.93 179.59L1468.19 160.329" stroke="#003B2F" stroke-width="3" stroke-linecap="round" stroke-linejoin="round"/><path d="M1293.55 280.613L1268.52 255.589L1243.5 280.613L1268.52 305.638L1293.55 280.613Z" stroke="#003B2F" stroke-width="3" stroke-linecap="round" stroke-linejoin="round"/><path d="M1773.57 684.037L1802.69 700.862" stroke="#003B2F" stroke-width="3" stroke-linecap="round" stroke-linejoin="round"/><path d="M1831.94 684.037L1814.76 693.9" stroke="#003B2F" stroke-width="3" stroke-linecap="round" stroke-linejoin="round"/><path d="M1802.69 700.863V734.86" stroke="#003B2F" stroke-width="3" stroke-linecap="round" stroke-linejoin="round"/><path d="M1591.69 820.492H1802.75" stroke="#03FC9D" stroke-width="3" stroke-linecap="round" stroke-linejoin="round"/><path d="M1697.22 856.177H1860.01" stroke="#003B2F" stroke-width="3" stroke-linecap="round" stroke-linejoin="round"/><path d="M194.349 856.177H275.803" stroke="#003B2F" stroke-width="3" stroke-linecap="round" stroke-linejoin="round"/><path d="M132.504 856.177H153.041" stroke="#003B2F" stroke-width="3" stroke-linecap="round" stroke-linejoin="round"/><path d="M241.207 576.76H273.349" stroke="#003B2F" stroke-width="3" stroke-linecap="round" stroke-linejoin="round"/><path d="M106.803 504.788H339.3" stroke="#03FC9D" stroke-width="3" stroke-linecap="round" stroke-linejoin="round"/><path d="M314.846 576.668H444.804" stroke="#003B2F" stroke-width="3" stroke-linecap="round" stroke-linejoin="round"/><path d="M357.493 690.187L376.755 709.449" stroke="#003B2F" stroke-width="3" stroke-linecap="round" stroke-linejoin="round"/><path d="M390.794 723.489L410.056 742.75" stroke="#003B2F" stroke-width="3" stroke-linecap="round" stroke-linejoin="round"/><path d="M357.493 742.75L376.755 723.489" stroke="#003B2F" stroke-width="3" stroke-linecap="round" stroke-linejoin="round"/><path d="M390.794 709.449L410.056 690.187" stroke="#003B2F" stroke-width="3" stroke-linecap="round" stroke-linejoin="round"/><g clip-path="url(#clip4_831_4642)"><path d="M990.938 483.235C1073.69 483.235 1140.77 416.151 1140.77 333.399C1140.77 250.647 1073.69 183.563 990.938 183.563C908.186 183.563 841.103 250.647 841.103 333.399C841.103 416.151 908.186 483.235 990.938 483.235Z" fill="#03FC9D"/><g clip-path="url(#clip5_831_4642)"><path fill-rule="evenodd" clip-rule="evenodd" d="M1043.5 314.433C1052.63 326.042 1058.09 340.723 1058.09 356.693C1058.09 372.663 1052.47 387.792 1043.1 399.466L1042.28 400.475L1042.07 399.195C1041.89 398.112 1041.68 397.01 1041.43 395.908C1036.73 375.026 1021.44 357.123 996.277 342.619C979.281 332.85 969.553 321.102 966.999 307.737C965.348 299.099 966.574 290.423 968.944 282.988C971.314 275.564 974.837 269.335 977.834 265.59L987.627 253.468C989.343 251.338 992.561 251.338 994.276 253.468L1043.51 314.433H1043.5ZM1058.98 302.32L993.363 221.07C992.109 219.52 989.766 219.52 988.513 221.07L922.9 302.32L922.688 302.592C910.617 317.768 903.387 337.053 903.387 358.047C903.387 406.937 942.588 446.573 990.938 446.573C1039.29 446.573 1078.49 406.937 1078.49 358.047C1078.49 337.053 1071.26 317.768 1059.19 302.601L1058.98 302.33L1058.98 302.32ZM938.605 314.172L944.47 306.897L944.645 308.241C944.783 309.306 944.958 310.371 945.161 311.445C948.961 331.627 962.526 348.447 985.202 361.474C1004.92 372.84 1016.4 385.906 1019.7 400.232C1021.08 406.209 1021.32 412.092 1020.72 417.239L1020.69 417.556L1020.4 417.696C1011.5 422.095 1001.5 424.569 990.928 424.569C953.848 424.569 923.785 394.18 923.785 356.684C923.785 340.583 929.328 325.799 938.586 314.153L938.605 314.172Z" fill="#003B2F"/></g></g></g><defs><clipPath id="clip0_831_4642"><rect width="1920" height="1080" fill="white"/></clipPath><clipPath id="clip1_831_4642"><rect width="55.9949" height="72.586" fill="white" transform="translate(643.857 176.598)"/></clipPath><clipPath id="clip2_831_4642"><rect width="42.4248" height="54.9951" fill="white" transform="translate(1369.2 357.195)"/></clipPath><clipPath id="clip3_831_4642"><rect width="74.5483" height="96.6367" fill="white" transform="translate(485.595 392.407)"/></clipPath><clipPath id="clip4_831_4642"><rect width="299.672" height="299.672" fill="white" transform="translate(841.103 183.563)"/></clipPath><clipPath id="clip5_831_4642"><rect width="175.102" height="226.984" fill="white" transform="translate(903.387 219.908)"/></clipPath></defs></svg>