<svg xmlns="http://www.w3.org/2000/svg" width="18" height="18" viewBox="0 0 18 18" fill="#FF782F" class="w-[16px] h-[16px] -translate-y-[4px] absolute right-[2px]" data-sentry-element="svg" data-sentry-component="HotIcon" data-sentry-source-file="icons.tsx"><path fill-rule="evenodd" clip-rule="evenodd" d="M11.1543 2.29756C11.0388 2.06667 10.8298 1.89647 10.5803 1.83021C10.3308 1.76394 10.0648 1.80801 9.85008 1.9512C9.53877 2.15877 9.29748 2.45352 9.10983 2.74317C8.91691 3.04074 8.74709 3.38538 8.59692 3.74734C8.29667 4.47101 8.04442 5.3388 7.84159 6.20805C7.58399 7.31208 7.39333 8.47523 7.28926 9.42989C6.85348 9.13613 6.60064 8.80679 6.43855 8.46999C6.14378 7.85746 6.08084 7.08953 6.08084 6.0817C6.08084 5.71768 5.86157 5.38951 5.52525 5.25021C5.18895 5.1109 4.80184 5.1879 4.54444 5.4453C3.31447 6.67528 2.69922 8.28917 2.69922 9.90005C2.69922 11.511 3.31447 13.1248 4.54444 14.3549C7.00475 16.8151 10.9937 16.8151 13.4539 14.3549C14.684 13.1248 15.2992 11.511 15.2992 9.90005C15.2992 8.28917 14.684 6.67528 13.4539 5.4453C12.9218 4.91305 12.5719 4.55813 12.2411 4.12457C11.9143 3.69624 11.5895 3.16797 11.1543 2.29756ZM10.9084 13.6092C9.85395 14.6637 8.14444 14.6637 7.09003 13.6092C6.56282 13.082 6.29922 12.3911 6.29922 11.7001C6.29922 11.7001 7.09003 12.1501 8.54926 12.1501C8.54926 11.25 8.99922 8.55005 9.67422 8.10005C10.1242 9.00005 10.3812 9.26366 10.9084 9.79088C11.4356 10.3181 11.6992 11.009 11.6992 11.7001C11.6992 12.3911 11.4356 13.082 10.9084 13.6092Z" data-sentry-element="path" data-sentry-source-file="icons.tsx"></path>
<path fill-rule="evenodd" clip-rule="evenodd" d="M11.1543 2.29756C11.0388 2.06667 10.8298 1.89647 10.5803 1.83021C10.3308 1.76394 10.0648 1.80801 9.85008 1.9512C9.53877 2.15877 9.29748 2.45352 9.10983 2.74317C8.91691 3.04074 8.74709 3.38538 8.59692 3.74734C8.29667 4.47101 8.04442 5.3388 7.84159 6.20805C7.58399 7.31208 7.39333 8.47523 7.28926 9.42989C6.85348 9.13613 6.60064 8.80679 6.43855 8.46999C6.14378 7.85746 6.08084 7.08953 6.08084 6.0817C6.08084 5.71768 5.86157 5.38951 5.52525 5.25021C5.18895 5.1109 4.80184 5.1879 4.54444 5.4453C3.31447 6.67528 2.69922 8.28917 2.69922 9.90005C2.69922 11.511 3.31447 13.1248 4.54444 14.3549C7.00475 16.8151 10.9937 16.8151 13.4539 14.3549C14.684 13.1248 15.2992 11.511 15.2992 9.90005C15.2992 8.28917 14.684 6.67528 13.4539 5.4453C12.9218 4.91305 12.5719 4.55813 12.2411 4.12457C11.9143 3.69624 11.5895 3.16797 11.1543 2.29756ZM10.9084 13.6092C9.85395 14.6637 8.14444 14.6637 7.09003 13.6092C6.56282 13.082 6.29922 12.3911 6.29922 11.7001C6.29922 11.7001 7.09003 12.1501 8.54926 12.1501C8.54926 11.25 8.99922 8.55005 9.67422 8.10005C10.1242 9.00005 10.3812 9.26366 10.9084 9.79088C11.4356 10.3181 11.6992 11.009 11.6992 11.7001C11.6992 12.3911 11.4356 13.082 10.9084 13.6092Z" data-sentry-element="path" data-sentry-source-file="icons.tsx"></path>
</svg>
