<?xml version="1.0" encoding="utf-8"?><svg viewBox="0 0 66.667 66.667" xmlns="http://www.w3.org/2000/svg" xmlns:xlink="http://www.w3.org/1999/xlink"><style>:root>svg{display:none}:root>svg:target{display:block}</style><svg viewBox="0 0 50 50" id="icon-ds" xmlns="http://www.w3.org/2000/svg"><path d="M18.906 7s-6.367.438-10.531 3.781a.466.466 0 0 0-.063.031C7.59 11.48 7.048 12.517 6.375 14c-.672 1.484-1.383 3.395-2.031 5.531C3.05 23.81 2 29.06 2 34a.971.971 0 0 0 .125.5c1.46 2.566 4.148 4.117 6.656 5.094 2.508.976 4.824 1.367 6 1.406.332.012.649-.14.844-.406l2.438-3.375c1.964.465 4.269.781 6.937.781s4.973-.316 6.938-.781l2.437 3.375c.195.265.512.418.844.406 1.176-.04 3.492-.43 6-1.406 2.508-.977 5.195-2.528 6.656-5.094A.971.971 0 0 0 48 34c0-4.941-1.05-10.191-2.344-14.469-.648-2.136-1.36-4.047-2.031-5.531-.672-1.484-1.215-2.52-1.938-3.188a.466.466 0 0 0-.062-.03C37.461 7.436 31.094 7 31.094 7a1.024 1.024 0 0 0-.219 0 1 1 0 0 0-.781.594s-.34.746-.563 1.812C27.582 9.094 25.941 9 25 9c-.941 0-2.582.094-4.531.406a9.509 9.509 0 0 0-.563-1.812 1.002 1.002 0 0 0-1-.594Zm-.625 2.156c.074.203.125.395.188.625-2.254.524-4.723 1.38-7.032 2.813a1.004 1.004 0 0 0-.613.898c-.008.39.215.754.567.926.355.168.777.117 1.078-.137C17.102 11.411 22.996 11 25 11c2.004 0 7.898.41 12.531 3.281.301.254.723.305 1.078.137.352-.172.575-.535.567-.926a1.004 1.004 0 0 0-.614-.898c-2.308-1.434-4.777-2.29-7.03-2.813.062-.23.113-.422.187-.625 1.14.14 5.574.739 8.593 3.125.196.18.876 1.18 1.5 2.563.626 1.383 1.282 3.183 1.907 5.25 1.218 4.031 2.203 9.004 2.25 13.562-1.137 1.84-3.27 3.207-5.469 4.063-2 .777-3.867 1.125-4.844 1.218l-1.687-2.28a24.85 24.85 0 0 0 2.312-.876c2.524-1.11 3.875-2.281 3.875-2.281a1.007 1.007 0 0 0-1.343-1.5s-1.047.957-3.344 1.969c-.844.37-1.867.738-3.032 1.062a1.003 1.003 0 0 0-.75.219c-1.863.453-4.078.75-6.687.75-2.629 0-4.848-.324-6.719-.781a.996.996 0 0 0-.718-.157 22.582 22.582 0 0 1-3.032-1.093C12.234 32.957 11.187 32 11.187 32a.996.996 0 0 0-.843-.25.999.999 0 0 0-.5 1.75s1.351 1.172 3.875 2.281c.68.297 1.453.598 2.312.875l-1.687 2.282c-.977-.094-2.844-.442-4.844-1.22-2.2-.855-4.332-2.222-5.469-4.062.047-4.558 1.032-9.531 2.25-13.562.625-2.067 1.282-3.867 1.907-5.25.624-1.383 1.304-2.383 1.5-2.563 3.019-2.386 7.453-2.984 8.593-3.125ZM18.5 21c-2.55 0-4.5 2.316-4.5 5s1.95 5 4.5 5 4.5-2.316 4.5-5-1.95-5-4.5-5Zm13 0c-2.55 0-4.5 2.316-4.5 5s1.95 5 4.5 5 4.5-2.316 4.5-5-1.95-5-4.5-5Zm-13 2c1.316 0 2.5 1.266 2.5 3s-1.184 3-2.5 3-2.5-1.266-2.5-3 1.184-3 2.5-3Zm13 0c1.316 0 2.5 1.266 2.5 3s-1.184 3-2.5 3-2.5-1.266-2.5-3 1.184-3 2.5-3Z"/></svg><svg class="bw-[16px] bh-[16px] b-translate-y-[4px] babsolute bright-[2px]" data-sentry-element="svg" data-sentry-component="HotIcon" data-sentry-source-file="icons.tsx" viewBox="0 0 18 18" id="icon-fire" xmlns="http://www.w3.org/2000/svg"><path fill-rule="evenodd" clip-rule="evenodd" d="M11.154 2.298A.9.9 0 0 0 9.85 1.95c-.311.208-.553.503-.74.792a6.3 6.3 0 0 0-.513 1.004c-.3.724-.553 1.592-.755 2.461a28.228 28.228 0 0 0-.553 3.222 2.376 2.376 0 0 1-.85-.96c-.295-.613-.358-1.38-.358-2.388a.9.9 0 0 0-1.537-.637A6.283 6.283 0 0 0 2.7 9.9a6.3 6.3 0 1 0 10.755-4.455c-.532-.532-.882-.887-1.213-1.32-.327-.429-.652-.957-1.087-1.827Zm-.246 11.311A2.7 2.7 0 0 1 6.3 11.7s.791.45 2.25.45c0-.9.45-3.6 1.125-4.05.45.9.707 1.164 1.234 1.69.528.528.791 1.219.791 1.91 0 .691-.263 1.382-.79 1.91Z" data-sentry-element="path" data-sentry-source-file="icons.tsx"/><path fill-rule="evenodd" clip-rule="evenodd" d="M11.154 2.298A.9.9 0 0 0 9.85 1.95c-.311.208-.553.503-.74.792a6.3 6.3 0 0 0-.513 1.004c-.3.724-.553 1.592-.755 2.461a28.228 28.228 0 0 0-.553 3.222 2.376 2.376 0 0 1-.85-.96c-.295-.613-.358-1.38-.358-2.388a.9.9 0 0 0-1.537-.637A6.283 6.283 0 0 0 2.7 9.9a6.3 6.3 0 1 0 10.755-4.455c-.532-.532-.882-.887-1.213-1.32-.327-.429-.652-.957-1.087-1.827Zm-.246 11.311A2.7 2.7 0 0 1 6.3 11.7s.791.45 2.25.45c0-.9.45-3.6 1.125-4.05.45.9.707 1.164 1.234 1.69.528.528.791 1.219.791 1.91 0 .691-.263 1.382-.79 1.91Z" data-sentry-element="path" data-sentry-source-file="icons.tsx"/></svg><svg version="1.0" viewBox="0 0 50 50" id="icon-moon" xmlns="http://www.w3.org/2000/svg"><path d="M20.9 5.8C7.9 12.6 5.1 29.6 15.3 40c6 6.2 15 8.5 22.6 5.9 4.1-1.4 3.9-3-.6-6C32.8 37.1 29 30.1 29 25s3.8-12.1 8.3-14.9c4.5-3 4.7-4.6.6-6-5.5-1.9-11.3-1.3-17 1.7zm9.8 5.1c-7.5 8.3-7.5 19.9 0 28.2l3.5 3.9h-3.4c-1.8 0-5.4-1-7.8-2.2C9.8 34.1 9.8 15.9 23 9.2 25.4 8 29 7 30.8 7h3.4l-3.5 3.9z"/></svg><svg version="1.0" viewBox="0 0 50 50" id="icon-site" xmlns="http://www.w3.org/2000/svg"><path d="M17 3.3C12.1 4.9 4.7 12.6 3.2 17.6.5 26.7 2.4 34.5 9 41c9.3 9.4 22.7 9.4 32 0 9.4-9.3 9.4-22.7 0-32-6.5-6.5-15-8.5-24-5.7zM24 9c0 4.5-.2 5-2.2 5-1.3 0-2.9-.4-3.7-.9-2.1-1.3 2.1-7.9 5.7-9 .1-.1.2 2.1.2 4.9zm7.1-.3c2.4 3.8 1.6 5.3-2.8 5.3-2.1 0-2.3-.5-2.3-5 0-5.8 1.6-5.9 5.1-.3zm-14.4.2c-1.6 2.9-2.6 3.7-3.9 3.2-2.8-1-2.5-2.4 1.1-4.8 4.7-3.2 5.3-2.9 2.8 1.6zM36 7.2c3.6 2.5 3.9 3.9 1.2 4.9-1.3.5-2.3-.3-3.9-3.2-2.5-4.5-1.9-4.8 2.7-1.7zM13.6 17.4c-.3 1.6-.6 3.7-.6 4.7 0 1.6-.8 1.9-4.5 1.9-5.2 0-5.6-1-2.6-7.7 1.9-4.1 2-4.2 5.1-3 2.8 1.1 3.1 1.5 2.6 4.1zM44 16.2c3.1 6.8 2.8 7.8-2.5 7.8-3.7 0-4.5-.3-4.5-1.9 0-1-.3-3.2-.6-4.8-.6-2.8-.2-3.2 5.4-5.2.2-.1 1.2 1.8 2.2 4.1zM22.3 16c1.3 0 1.7.9 1.7 4v4h-4.5c-4.8 0-5-.3-3.9-6 .6-2.6 1-3.1 2.8-2.6 1.2.3 2.9.6 3.9.6zm12.1 2.1c1.1 5.6.9 5.9-3.9 5.9H26v-3.9c0-4.1-.1-4.1 6.6-5 .6 0 1.4 1.3 1.8 3zM13 27.9c0 1 .3 3.1.6 4.7.5 2.6.2 3-2.6 4.1-3.1 1.2-3.2 1.1-5.1-3C2.9 27 3.3 26 8.5 26c3.7 0 4.5.3 4.5 1.9zm11 2c0 3.7-.2 3.9-3.7 4.4-2 .4-3.8.5-4 .4-.1-.2-.5-2.2-.9-4.5l-.7-4.2H24v3.9zm10.6.3c-.4 2.3-.8 4.3-.9 4.5-.2.1-2 0-4-.4-3.5-.5-3.7-.7-3.7-4.4V26h9.3l-.7 4.2zM46 27.7c0 1-.9 3.7-1.9 6-1.9 4.1-2 4.2-5.1 3-2.8-1.1-3.1-1.5-2.6-4.1.3-1.6.6-3.7.6-4.7 0-1.6.8-1.9 4.5-1.9 3.6 0 4.5.3 4.5 1.7zM24 41c0 5.8-1.6 5.9-5.1.3-2.4-3.8-1.6-5.3 2.9-5.3 2 0 2.2.5 2.2 5zm7.9-4.1c1.1.7 1 1.5-.8 4.4-3.5 5.6-5.1 5.5-5.1-.3 0-4.5.2-5 2.3-5 1.2 0 2.8.4 3.6.9zm-13.5 7.9c-.4.6-6-2.6-7.3-4.2-1.1-1.3-1-1.7 1-2.5 2.1-.7 2.7-.4 4.5 2.8 1.1 2 2 3.7 1.8 3.9zm20.9-5.3c.1 1-6 5.5-7.4 5.5-.4 0 .2-1.8 1.4-3.9 1.7-3 2.5-3.7 4-3.2 1 .4 1.9 1.1 2 1.6z"/></svg><svg viewBox="0 0 24 24" id="icon-sun" xmlns="http://www.w3.org/2000/svg"><path d="M11 0v3h2V0h-2zM4.223 2.809 2.809 4.223l2.12 2.12L6.345 4.93 4.223 2.809zm15.554 0-2.12 2.12 1.413 1.415 2.121-2.121-1.414-1.414zM12 5c-3.854 0-7 3.146-7 7s3.146 7 7 7 7-3.146 7-7-3.146-7-7-7zm0 2c2.773 0 5 2.227 5 5s-2.227 5-5 5-5-2.227-5-5 2.227-5 5-5zM0 11v2h3v-2H0zm21 0v2h3v-2h-3zM4.93 17.656l-2.121 2.121 1.414 1.414 2.12-2.12-1.413-1.415zm14.14 0-1.414 1.414 2.121 2.121 1.414-1.414-2.12-2.12zM11 21v3h2v-3h-2z"/></svg><svg viewBox="0 0 50 50" id="icon-x" xmlns="http://www.w3.org/2000/svg"><path d="m5.92 6 14.662 21.375L6.23 44h3.18l12.576-14.578 10 14.578H44L28.682 21.67 42.199 6h-3.17L27.275 19.617 17.934 6H5.92zm3.797 2h7.164l23.322 34H33.04L9.717 8z"/></svg></svg>