<?xml version="1.0" encoding="utf-8"?><svg viewBox="0 0 1920 1080" xmlns="http://www.w3.org/2000/svg" xmlns:xlink="http://www.w3.org/1999/xlink"><style>:root>svg{display:none}:root>svg:target{display:block}</style><svg viewBox="0 0 1920 1080" id="banner-sui" xmlns="http://www.w3.org/2000/svg"><g clip-path="url(#aa)"><path d="M683.431 933.263c-20.707-2.446-313.296-49.744-206.174-142.137-121.552 54.31-75.735 113.025 117.394 146.296 111.199 19.164 255.659 27.645 396.287 20.632a1817.91 1817.91 0 0 0 93.102-7.013 3088.097 3088.097 0 0 1-93.102 2.201c-114.377.816-194.434-6.687-307.589-19.979h.082Z"/><path d="M990.938 706.479c-286.637 0-519.061 52.028-519.061 116.124 0 64.097 232.424 116.124 519.061 116.124C1277.58 938.727 1510 886.7 1510 822.603c0-64.096-232.42-116.124-519.062-116.124Zm0 207.457c-225.413 0-408.189-40.936-408.189-91.333 0-50.396 182.858-91.333 408.189-91.333 225.332 0 408.192 40.937 408.192 91.333 0 50.397-182.86 91.333-408.192 91.333Z"/><path d="M1321.27 787.375c89.68 61.242-155.22 92.638-172.58 94.187-58.7 5.464-106.8 9.46-157.752 11.58-51.604 2.12-106.062 2.365-177.477.244 57.964 4.73 118.373 6.687 177.477 6.198 84.052-.652 165.252-6.116 232.022-15.249 161.66-22.1 199.97-60.998 98.23-96.96h.08Z"/><path fill-rule="evenodd" clip-rule="evenodd" d="M1252.38 808.495c-146.82-112.454 117.97-247.252 83.65-263.969-68.89-33.761-91.31 78.856-113.73 53.658-25.6-28.705-48.67 27.645-62.2 42.894-77.86 87.908-169.651 45.422-206.011-66.543-30.082-92.638-73.615-31.069-66.523 34.332 6.277 57.899-30.979 124.523-77.203 64.423-33.995-44.199-36.033-28.134-68.643-23.568-46.468 6.442-72.964-76.736-107.285-40.774-15.979 16.718 10.272 25.199 31.55 47.543 40.598 42.812 94.812 104.707 15.652 158.447 170.14 60.1 484.663 42.078 570.743-6.443Z"/><path fill-rule="evenodd" clip-rule="evenodd" d="M1219.86 805.804c-46.72 11.743-138.1 22.181-231.938 22.263-109.731.163-214.571-23.649-234.381-81.792-39.131-114.819-117.15-101.119-106.633-135.94-20.707 6.931 14.022 31.396 25.761 40.855 18.18 14.597 56.904 64.015 59.513 87.093 3.016 26.503-16.223 59.693 11.576 72.006 31.305 13.863 109.894 26.993 159.868 29.276 98.724 4.648 237.394-.815 316.234-33.761Z"/><path fill-rule="evenodd" clip-rule="evenodd" d="M794.385 756.06c0-25.524-25.68-48.847-37.338-67.521-10.354-16.554-.815-43.546 23.479-32.293-24.947-3.017-6.767 35.881-2.038 43.22 12.065 19.001 28.288 41.345 15.897 56.676v-.082Zm132.313-217.732c-36.197-8.318-26.496 63.689-26.251 87.501.163 21.365-2.364 37.022-11.25 57.328-5.788 13.21-32.121 34.168-49.73 27.563 22.338 31.233 59.757 6.034 66.931-35.392 3.995-22.588 3.587-54.963 2.283-83.994-1.223-27.237 3.016-53.821 18.017-53.006Zm292.102 73.964c-12.88-41.752-42.97 33.598-63.27 51.375-39.21 34.413-68.31 40.203-120.81 31.314 60.32 21.203 111.85 4.078 145.84-44.769 17.2-24.709 26.74-46.401 38.16-37.92h.08Zm112.26-64.83c-44.44-14.842-56.99 23.159-74.76 45.177-16.23 19.979-67.5 59.937-67.5 89.702 18.18-34.413 41.57-59.448 71.09-79.998 23.15-16.146 34.24-58.306 71.25-54.881h-.08ZM671.854 152.383c33.425 0 60.491 27.074 60.491 60.508 0 33.435-27.066 60.509-60.491 60.509-33.424 0-60.49-27.074-60.49-60.509 0-33.434 27.066-60.508 60.49-60.508Z"/><path d="M651.066 178.152c1.63 0 3.261-.163 4.973-.571 5.136-1.142 9.946-3.833 12.065-7.095 2.772-4.24-.407-7.583-7.092-7.583-1.631 0-3.261.163-4.973.57-5.136 1.142-9.946 3.833-11.984 7.095-2.772 4.241.407 7.665 7.092 7.665l-.081-.081Zm26.984 75.513c-7.908 0-15.408-1.631-22.093-4.648a51.86 51.86 0 0 1-14.43-9.786c-9.293-9.133-14.837-21.773-14.266-35.799.407-9.623 3.668-18.593 8.886-26.259-9.131 8.971-14.837 21.366-14.837 35.147 0 16.31 7.907 30.744 20.136 39.714 4.321 3.18 9.212 5.627 14.43 7.258 4.646 1.468 9.538 2.202 14.674 2.202 14.267 0 27.066-6.035 36.033-15.739a55.966 55.966 0 0 1-28.614 7.828l.081.082Z"/><g clip-path="url(#ab)"><path fill-rule="evenodd" clip-rule="evenodd" d="M688.663 206.826a21.785 21.785 0 0 1 4.666 13.514c0 5.107-1.799 9.945-4.795 13.678l-.26.323-.068-.409a19.465 19.465 0 0 0-.206-1.051c-1.501-6.678-6.39-12.403-14.438-17.042-5.435-3.123-8.546-6.88-9.363-11.154-.528-2.763-.136-5.537.622-7.914.758-2.375 1.884-4.367 2.843-5.564l3.132-3.877a1.362 1.362 0 0 1 2.126 0l15.744 19.496h-.003Zm4.952-3.873L672.63 176.97a.994.994 0 0 0-1.551 0l-20.982 25.983-.068.086a28.397 28.397 0 0 0-6.172 17.734c0 15.635 12.536 28.309 27.997 28.309 15.462 0 27.998-12.674 27.998-28.309a28.383 28.383 0 0 0-6.172-17.731l-.068-.086.003-.003Zm-38.496 3.79 1.876-2.327.056.43c.044.341.1.681.165 1.024 1.215 6.454 5.553 11.833 12.804 15.999 6.305 3.635 9.976 7.813 11.032 12.394.442 1.912.519 3.793.327 5.439l-.011.101-.092.045a21.204 21.204 0 0 1-9.425 2.198c-11.857 0-21.471-9.718-21.471-21.709 0-5.149 1.772-9.876 4.733-13.6l.006.006Z"/></g><path fill-rule="evenodd" clip-rule="evenodd" d="M1390.41 333.399c28.37 0 51.28 22.997 51.28 51.294 0 28.297-22.91 51.293-51.28 51.293s-51.28-22.996-51.28-51.293 22.99-51.294 51.28-51.294Z"/><path d="M1395.71 419.269c-6.77 0-13.13-1.387-18.75-3.996a42.182 42.182 0 0 1-12.23-8.318c-7.91-7.747-12.55-18.43-12.06-30.336.32-8.154 3.09-15.82 7.58-22.262-7.75 7.584-12.56 18.185-12.56 29.846a41.708 41.708 0 0 0 17.04 33.679 42.196 42.196 0 0 0 12.23 6.198 41.821 41.821 0 0 0 12.39 1.876c12.07 0 22.91-5.138 30.57-13.293a47.939 47.939 0 0 1-24.29 6.606h.08Zm-22.91-64.015c1.39 0 2.77-.163 4.16-.489 4.32-.979 8.48-3.262 10.19-5.953 2.36-3.588-.33-6.443-5.95-6.443-1.39 0-2.77.164-4.24.49-4.32.978-8.4 3.262-10.19 5.953-2.37 3.588.32 6.442 5.95 6.442h.08Z"/><path d="M1362.61 366.181c.73 0 1.47-.081 2.2-.244 2.28-.49 4.4-1.713 5.3-3.099 1.22-1.876-.16-3.344-3.1-3.344-.73 0-1.46.082-2.2.245-2.28.489-4.4 1.713-5.3 3.099-1.22 1.875.17 3.343 3.1 3.343Z"/><g clip-path="url(#ac)"><path fill-rule="evenodd" clip-rule="evenodd" d="M1403.15 380.097a16.518 16.518 0 0 1 3.53 10.239c0 3.87-1.36 7.535-3.63 10.364l-.2.244-.05-.31c-.04-.262-.1-.529-.16-.796-1.13-5.06-4.84-9.398-10.94-12.912-4.11-2.366-6.47-5.213-7.09-8.451-.4-2.093-.1-4.195.47-5.996.58-1.799 1.43-3.308 2.16-4.216l2.37-2.937a1.03 1.03 0 0 1 1.61 0l11.93 14.771Zm3.75-2.934-15.9-19.686a.758.758 0 0 0-1.18 0l-15.89 19.686-.06.065a21.537 21.537 0 0 0-4.67 13.436c0 11.846 9.5 21.449 21.21 21.449 11.72 0 21.21-9.603 21.21-21.449 0-5.086-1.75-9.759-4.67-13.434l-.05-.065v-.002Zm-29.17 2.871 1.42-1.763.04.326c.04.258.08.516.13.776.92 4.89 4.21 8.965 9.7 12.122 4.78 2.754 7.56 5.919 8.36 9.39.33 1.448.39 2.874.25 4.121l-.01.077-.07.034a16.092 16.092 0 0 1-7.14 1.665c-8.99 0-16.27-7.363-16.27-16.448 0-3.901 1.34-7.483 3.59-10.304v.004Z"/></g><path fill-rule="evenodd" clip-rule="evenodd" d="M751.666 534.659c15.082 0 27.31 12.232 27.31 27.318 0 15.086-12.228 27.319-27.31 27.319-15.082 0-27.311-12.233-27.311-27.319 0-15.086 12.229-27.318 27.311-27.318Z"/><path d="M754.519 580.407c-3.587 0-6.929-.734-9.946-2.12-2.445-1.142-4.646-2.61-6.521-4.404-4.24-4.077-6.685-9.867-6.441-16.146.163-4.322 1.631-8.4 3.995-11.825-4.158 3.996-6.685 9.623-6.685 15.902 0 7.339 3.587 13.945 9.049 17.94 1.957 1.468 4.158 2.528 6.522 3.262 2.12.653 4.321.979 6.603.979 6.441 0 12.229-2.773 16.305-7.095a25.68 25.68 0 0 1-12.962 3.507h.081Z"/><path fill-rule="evenodd" clip-rule="evenodd" d="M1216.19 497.799c15.08 0 27.31 12.232 27.31 27.319 0 15.086-12.23 27.318-27.31 27.318-15.08 0-27.31-12.232-27.31-27.318 0-15.087 12.23-27.319 27.31-27.319Z"/><path d="M1206.81 509.46c.74 0 1.55-.081 2.29-.244 2.28-.489 4.48-1.713 5.38-3.181 1.22-1.875-.17-3.425-3.18-3.425-.74 0-1.47.082-2.2.245-2.29.489-4.49 1.713-5.38 3.18-1.23 1.876.16 3.425 3.17 3.425h-.08Zm-5.46 5.79s.82 0 1.22-.163c1.23-.244 2.37-.897 2.86-1.712.65-.979-.08-1.794-1.63-1.794-.41 0-.82 0-1.14.163-1.23.244-2.37.897-2.86 1.631-.65.978.17 1.794 1.63 1.794l-.08.081Z"/><path fill-rule="evenodd" clip-rule="evenodd" d="M522.668 362.838c43.025 0 77.865 34.85 77.865 77.887 0 43.038-34.84 77.887-77.865 77.887-43.025 0-77.864-34.849-77.864-77.887 0-43.037 34.839-77.887 77.864-77.887Z"/><g clip-path="url(#ad)"><path fill-rule="evenodd" clip-rule="evenodd" d="M545.248 432.65a29.01 29.01 0 0 1 6.211 17.992c0 6.799-2.395 13.24-6.384 18.21l-.346.43-.09-.545c-.078-.461-.168-.93-.275-1.399-1.998-8.891-8.507-16.513-19.222-22.688-7.236-4.159-11.377-9.161-12.465-14.85-.703-3.678-.181-7.372.828-10.537 1.01-3.161 2.509-5.813 3.785-7.407l4.17-5.161c.73-.907 2.1-.907 2.83 0l20.962 25.955h-.004Zm6.592-5.157-27.938-34.591a1.324 1.324 0 0 0-2.065 0l-27.934 34.591-.091.116c-5.139 6.461-8.217 14.672-8.217 23.61 0 20.814 16.69 37.689 37.274 37.689 20.585 0 37.274-16.875 37.274-37.689 0-8.938-3.078-17.149-8.217-23.606l-.09-.116.004-.004Zm-51.251 5.046 2.497-3.097.074.572c.059.454.134.907.22 1.364 1.618 8.592 7.393 15.753 17.047 21.3 8.394 4.839 13.282 10.401 14.687 16.501.589 2.544.692 5.049.436 7.24l-.015.135-.122.06a28.253 28.253 0 0 1-12.548 2.926c-15.787 0-28.586-12.938-28.586-28.902 0-6.854 2.36-13.149 6.302-18.107l.008.008Z"/></g><path d="M495.909 395.903c2.099 0 4.198-.21 6.401-.735 6.611-1.469 12.803-4.933 15.531-9.132 3.568-5.458-.525-9.867-9.13-9.867-2.098 0-4.302.315-6.401.735-6.611 1.469-12.802 4.933-15.426 9.132-3.568 5.458.525 9.867 9.13 9.867h-.105Zm-15.531 16.69c1.049 0 2.204-.105 3.358-.42 3.358-.734 6.716-2.624 8.08-4.723 1.889-2.834-.315-5.144-4.722-5.144-1.049 0-2.204.105-3.358.42-3.463.735-6.716 2.624-8.08 4.724-1.889 2.834.315 5.143 4.722 5.143ZM350.466 227.763h-49.762c15.671 0 28.597-12.764 28.597-28.598 0-15.833-12.764-28.597-28.597-28.597H157.717c-15.672 0-28.597 12.764-28.597 28.597H85.174c-15.672 0-28.597 12.764-28.597 28.598 0 15.833 12.763 28.597 28.597 28.597h93.708c0 15.672 12.764 28.597 28.598 28.597h142.986c15.672 0 28.597-12.764 28.597-28.597 0-15.834-12.764-28.597-28.597-28.597Z"/><path d="M-43.917 323.733h248.651c27.393 0 49.6-22.208 49.6-49.601 0-27.394-22.207-49.601-49.6-49.601H-43.917c-27.394 0-49.601 22.207-49.601 49.601 0 27.393 22.207 49.601 49.6 49.601ZM1532.3 619.339h122.46c13.46 0 24.38-10.913 24.38-24.375v-.083c0-13.462-10.92-24.375-24.38-24.375H1532.3c-13.46 0-24.37 10.913-24.37 24.375v.083c0 13.462 10.91 24.375 24.37 24.375Z"/><path d="M1598.71 581.865h200.48c22.07 0 39.96-17.892 39.96-39.963 0-22.07-17.89-39.962-39.96-39.962h-200.48c-22.07 0-39.96 17.892-39.96 39.962 0 22.071 17.89 39.963 39.96 39.963ZM1597.68 235.053h81.46m-143.3 0h20.53m-140.74-74.724 19.26 19.261m14.04 14.04 19.26 19.261m-52.56 0 19.26-19.261m14.04-14.04 19.26-19.261m-174.64 120.284-25.03-25.024-25.02 25.024 25.02 25.025 25.03-25.025Zm480.02 403.424 29.12 16.825m29.25-16.825-17.18 9.863m-12.07 6.963v33.997M1591.69 820.492h211.06M1697.22 856.177h162.79m-1665.661 0h81.454m-143.299 0h20.537m88.166-279.417h32.142M106.803 504.788H339.3M314.846 576.668h129.958m-87.311 113.519 19.262 19.262m14.039 14.04 19.262 19.261m-52.563 0 19.262-19.261m14.039-14.04 19.262-19.262"/><g clip-path="url(#ae)"><path d="M990.938 483.235c82.752 0 149.832-67.084 149.832-149.836 0-82.752-67.08-149.836-149.832-149.836s-149.835 67.084-149.835 149.836c0 82.752 67.083 149.836 149.835 149.836Z"/><g clip-path="url(#af)"><path fill-rule="evenodd" clip-rule="evenodd" d="M1043.5 314.433c9.13 11.609 14.59 26.29 14.59 42.26 0 15.97-5.62 31.099-14.99 42.773l-.82 1.009-.21-1.28a57.447 57.447 0 0 0-.64-3.287c-4.7-20.882-19.99-38.785-45.153-53.289-16.996-9.769-26.724-21.517-29.278-34.882-1.651-8.638-.425-17.314 1.945-24.749 2.37-7.424 5.893-13.653 8.89-17.398l9.793-12.122a4.258 4.258 0 0 1 6.649 0l49.234 60.965h-.01Zm15.48-12.113-65.617-81.25a3.11 3.11 0 0 0-4.85 0L922.9 302.32l-.212.272c-12.071 15.176-19.301 34.461-19.301 55.455 0 48.89 39.201 88.526 87.551 88.526 48.352 0 87.552-39.636 87.552-88.526 0-20.994-7.23-40.279-19.3-55.446l-.21-.271v-.01Zm-120.375 11.852 5.865-7.275.175 1.344c.138 1.065.313 2.13.516 3.204 3.8 20.182 17.365 37.002 40.041 50.029 19.718 11.366 31.198 24.432 34.498 38.758 1.38 5.977 1.62 11.86 1.02 17.007l-.03.317-.29.14a66.316 66.316 0 0 1-29.472 6.873c-37.08 0-67.143-30.389-67.143-67.885 0-16.101 5.543-30.885 14.801-42.531l.019.019Z"/></g></g></g><defs><clipPath id="aa"><path d="M0 0h1920v1080H0z"/></clipPath><clipPath id="ab"><path transform="translate(643.857 176.598)" d="M0 0h55.995v72.586H0z"/></clipPath><clipPath id="ac"><path transform="translate(1369.2 357.195)" d="M0 0h42.425v54.995H0z"/></clipPath><clipPath id="ad"><path transform="translate(485.595 392.407)" d="M0 0h74.548v96.637H0z"/></clipPath><clipPath id="ae"><path transform="translate(841.103 183.563)" d="M0 0h299.672v299.672H0z"/></clipPath><clipPath id="af"><path transform="translate(903.387 219.908)" d="M0 0h175.102v226.984H0z"/></clipPath></defs></svg><svg viewBox="0 0 16 16" id="icon-close" xmlns="http://www.w3.org/2000/svg"><path d="m1 1 14.242 14.042M15.241 1 1 15.042"/></svg><svg stroke-width="2" stroke-linecap="round" stroke-linejoin="round" class="clucide clucide-chevron-down-icon clucide-chevron-down" viewBox="0 0 24 24" id="icon-down" xmlns="http://www.w3.org/2000/svg"><path d="m6 9 6 6 6-6"/></svg><svg viewBox="0 0 50 50" id="icon-ds" xmlns="http://www.w3.org/2000/svg"><path d="M18.906 7s-6.367.438-10.531 3.781a.466.466 0 0 0-.063.031C7.59 11.48 7.048 12.517 6.375 14c-.672 1.484-1.383 3.395-2.031 5.531C3.05 23.81 2 29.06 2 34a.971.971 0 0 0 .125.5c1.46 2.566 4.148 4.117 6.656 5.094 2.508.976 4.824 1.367 6 1.406.332.012.649-.14.844-.406l2.438-3.375c1.964.465 4.269.781 6.937.781s4.973-.316 6.938-.781l2.437 3.375c.195.265.512.418.844.406 1.176-.04 3.492-.43 6-1.406 2.508-.977 5.195-2.528 6.656-5.094A.971.971 0 0 0 48 34c0-4.941-1.05-10.191-2.344-14.469-.648-2.136-1.36-4.047-2.031-5.531-.672-1.484-1.215-2.52-1.938-3.188a.466.466 0 0 0-.062-.03C37.461 7.436 31.094 7 31.094 7a1.024 1.024 0 0 0-.219 0 1 1 0 0 0-.781.594s-.34.746-.563 1.812C27.582 9.094 25.941 9 25 9c-.941 0-2.582.094-4.531.406a9.509 9.509 0 0 0-.563-1.812 1.002 1.002 0 0 0-1-.594Zm-.625 2.156c.074.203.125.395.188.625-2.254.524-4.723 1.38-7.032 2.813a1.004 1.004 0 0 0-.613.898c-.008.39.215.754.567.926.355.168.777.117 1.078-.137C17.102 11.411 22.996 11 25 11c2.004 0 7.898.41 12.531 3.281.301.254.723.305 1.078.137.352-.172.575-.535.567-.926a1.004 1.004 0 0 0-.614-.898c-2.308-1.434-4.777-2.29-7.03-2.813.062-.23.113-.422.187-.625 1.14.14 5.574.739 8.593 3.125.196.18.876 1.18 1.5 2.563.626 1.383 1.282 3.183 1.907 5.25 1.218 4.031 2.203 9.004 2.25 13.562-1.137 1.84-3.27 3.207-5.469 4.063-2 .777-3.867 1.125-4.844 1.218l-1.687-2.28a24.85 24.85 0 0 0 2.312-.876c2.524-1.11 3.875-2.281 3.875-2.281a1.007 1.007 0 0 0-1.343-1.5s-1.047.957-3.344 1.969c-.844.37-1.867.738-3.032 1.062a1.003 1.003 0 0 0-.75.219c-1.863.453-4.078.75-6.687.75-2.629 0-4.848-.324-6.719-.781a.996.996 0 0 0-.718-.157 22.582 22.582 0 0 1-3.032-1.093C12.234 32.957 11.187 32 11.187 32a.996.996 0 0 0-.843-.25.999.999 0 0 0-.5 1.75s1.351 1.172 3.875 2.281c.68.297 1.453.598 2.312.875l-1.687 2.282c-.977-.094-2.844-.442-4.844-1.22-2.2-.855-4.332-2.222-5.469-4.062.047-4.558 1.032-9.531 2.25-13.562.625-2.067 1.282-3.867 1.907-5.25.624-1.383 1.304-2.383 1.5-2.563 3.019-2.386 7.453-2.984 8.593-3.125ZM18.5 21c-2.55 0-4.5 2.316-4.5 5s1.95 5 4.5 5 4.5-2.316 4.5-5-1.95-5-4.5-5Zm13 0c-2.55 0-4.5 2.316-4.5 5s1.95 5 4.5 5 4.5-2.316 4.5-5-1.95-5-4.5-5Zm-13 2c1.316 0 2.5 1.266 2.5 3s-1.184 3-2.5 3-2.5-1.266-2.5-3 1.184-3 2.5-3Zm13 0c1.316 0 2.5 1.266 2.5 3s-1.184 3-2.5 3-2.5-1.266-2.5-3 1.184-3 2.5-3Z"/></svg><svg class="ew-[16px] eh-[16px] e-translate-y-[4px] eabsolute eright-[2px]" data-sentry-element="svg" data-sentry-component="HotIcon" data-sentry-source-file="icons.tsx" viewBox="0 0 18 18" id="icon-fire" xmlns="http://www.w3.org/2000/svg"><path fill-rule="evenodd" clip-rule="evenodd" d="M11.154 2.298A.9.9 0 0 0 9.85 1.95c-.311.208-.553.503-.74.792a6.3 6.3 0 0 0-.513 1.004c-.3.724-.553 1.592-.755 2.461a28.228 28.228 0 0 0-.553 3.222 2.376 2.376 0 0 1-.85-.96c-.295-.613-.358-1.38-.358-2.388a.9.9 0 0 0-1.537-.637A6.283 6.283 0 0 0 2.7 9.9a6.3 6.3 0 1 0 10.755-4.455c-.532-.532-.882-.887-1.213-1.32-.327-.429-.652-.957-1.087-1.827Zm-.246 11.311A2.7 2.7 0 0 1 6.3 11.7s.791.45 2.25.45c0-.9.45-3.6 1.125-4.05.45.9.707 1.164 1.234 1.69.528.528.791 1.219.791 1.91 0 .691-.263 1.382-.79 1.91Z" data-sentry-element="path" data-sentry-source-file="icons.tsx"/><path fill-rule="evenodd" clip-rule="evenodd" d="M11.154 2.298A.9.9 0 0 0 9.85 1.95c-.311.208-.553.503-.74.792a6.3 6.3 0 0 0-.513 1.004c-.3.724-.553 1.592-.755 2.461a28.228 28.228 0 0 0-.553 3.222 2.376 2.376 0 0 1-.85-.96c-.295-.613-.358-1.38-.358-2.388a.9.9 0 0 0-1.537-.637A6.283 6.283 0 0 0 2.7 9.9a6.3 6.3 0 1 0 10.755-4.455c-.532-.532-.882-.887-1.213-1.32-.327-.429-.652-.957-1.087-1.827Zm-.246 11.311A2.7 2.7 0 0 1 6.3 11.7s.791.45 2.25.45c0-.9.45-3.6 1.125-4.05.45.9.707 1.164 1.234 1.69.528.528.791 1.219.791 1.91 0 .691-.263 1.382-.79 1.91Z" data-sentry-element="path" data-sentry-source-file="icons.tsx"/></svg><svg version="1.0" viewBox="0 0 50 50" id="icon-mail" xmlns="http://www.w3.org/2000/svg"><path d="M0 25v18h50V7H0v18zm48-14.7C48 11.6 26.7 29 25.1 29 23.5 29 2.5 12 2.2 10.4 1.9 9.2 5.4 9 24.9 9 43.1 9 48 9.3 48 10.3zM25 32c.3 0 5.6-4.1 11.8-9L48 13.9V41H2V13.9L13.2 23c6.2 4.9 11.5 9 11.8 9z"/></svg><svg version="1.0" viewBox="0 0 50 50" id="icon-moon" xmlns="http://www.w3.org/2000/svg"><path d="M20.9 5.8C7.9 12.6 5.1 29.6 15.3 40c6 6.2 15 8.5 22.6 5.9 4.1-1.4 3.9-3-.6-6C32.8 37.1 29 30.1 29 25s3.8-12.1 8.3-14.9c4.5-3 4.7-4.6.6-6-5.5-1.9-11.3-1.3-17 1.7zm9.8 5.1c-7.5 8.3-7.5 19.9 0 28.2l3.5 3.9h-3.4c-1.8 0-5.4-1-7.8-2.2C9.8 34.1 9.8 15.9 23 9.2 25.4 8 29 7 30.8 7h3.4l-3.5 3.9z"/></svg><svg version="1.0" viewBox="0 0 50 50" id="icon-site" xmlns="http://www.w3.org/2000/svg"><path d="M17 3.3C12.1 4.9 4.7 12.6 3.2 17.6.5 26.7 2.4 34.5 9 41c9.3 9.4 22.7 9.4 32 0 9.4-9.3 9.4-22.7 0-32-6.5-6.5-15-8.5-24-5.7zM24 9c0 4.5-.2 5-2.2 5-1.3 0-2.9-.4-3.7-.9-2.1-1.3 2.1-7.9 5.7-9 .1-.1.2 2.1.2 4.9zm7.1-.3c2.4 3.8 1.6 5.3-2.8 5.3-2.1 0-2.3-.5-2.3-5 0-5.8 1.6-5.9 5.1-.3zm-14.4.2c-1.6 2.9-2.6 3.7-3.9 3.2-2.8-1-2.5-2.4 1.1-4.8 4.7-3.2 5.3-2.9 2.8 1.6zM36 7.2c3.6 2.5 3.9 3.9 1.2 4.9-1.3.5-2.3-.3-3.9-3.2-2.5-4.5-1.9-4.8 2.7-1.7zM13.6 17.4c-.3 1.6-.6 3.7-.6 4.7 0 1.6-.8 1.9-4.5 1.9-5.2 0-5.6-1-2.6-7.7 1.9-4.1 2-4.2 5.1-3 2.8 1.1 3.1 1.5 2.6 4.1zM44 16.2c3.1 6.8 2.8 7.8-2.5 7.8-3.7 0-4.5-.3-4.5-1.9 0-1-.3-3.2-.6-4.8-.6-2.8-.2-3.2 5.4-5.2.2-.1 1.2 1.8 2.2 4.1zM22.3 16c1.3 0 1.7.9 1.7 4v4h-4.5c-4.8 0-5-.3-3.9-6 .6-2.6 1-3.1 2.8-2.6 1.2.3 2.9.6 3.9.6zm12.1 2.1c1.1 5.6.9 5.9-3.9 5.9H26v-3.9c0-4.1-.1-4.1 6.6-5 .6 0 1.4 1.3 1.8 3zM13 27.9c0 1 .3 3.1.6 4.7.5 2.6.2 3-2.6 4.1-3.1 1.2-3.2 1.1-5.1-3C2.9 27 3.3 26 8.5 26c3.7 0 4.5.3 4.5 1.9zm11 2c0 3.7-.2 3.9-3.7 4.4-2 .4-3.8.5-4 .4-.1-.2-.5-2.2-.9-4.5l-.7-4.2H24v3.9zm10.6.3c-.4 2.3-.8 4.3-.9 4.5-.2.1-2 0-4-.4-3.5-.5-3.7-.7-3.7-4.4V26h9.3l-.7 4.2zM46 27.7c0 1-.9 3.7-1.9 6-1.9 4.1-2 4.2-5.1 3-2.8-1.1-3.1-1.5-2.6-4.1.3-1.6.6-3.7.6-4.7 0-1.6.8-1.9 4.5-1.9 3.6 0 4.5.3 4.5 1.7zM24 41c0 5.8-1.6 5.9-5.1.3-2.4-3.8-1.6-5.3 2.9-5.3 2 0 2.2.5 2.2 5zm7.9-4.1c1.1.7 1 1.5-.8 4.4-3.5 5.6-5.1 5.5-5.1-.3 0-4.5.2-5 2.3-5 1.2 0 2.8.4 3.6.9zm-13.5 7.9c-.4.6-6-2.6-7.3-4.2-1.1-1.3-1-1.7 1-2.5 2.1-.7 2.7-.4 4.5 2.8 1.1 2 2 3.7 1.8 3.9zm20.9-5.3c.1 1-6 5.5-7.4 5.5-.4 0 .2-1.8 1.4-3.9 1.7-3 2.5-3.7 4-3.2 1 .4 1.9 1.1 2 1.6z"/></svg><svg viewBox="0 0 24 24" id="icon-sun" xmlns="http://www.w3.org/2000/svg"><path d="M11 0v3h2V0h-2zM4.223 2.809 2.809 4.223l2.12 2.12L6.345 4.93 4.223 2.809zm15.554 0-2.12 2.12 1.413 1.415 2.121-2.121-1.414-1.414zM12 5c-3.854 0-7 3.146-7 7s3.146 7 7 7 7-3.146 7-7-3.146-7-7-7zm0 2c2.773 0 5 2.227 5 5s-2.227 5-5 5-5-2.227-5-5 2.227-5 5-5zM0 11v2h3v-2H0zm21 0v2h3v-2h-3zM4.93 17.656l-2.121 2.121 1.414 1.414 2.12-2.12-1.413-1.415zm14.14 0-1.414 1.414 2.121 2.121 1.414-1.414-2.12-2.12zM11 21v3h2v-3h-2z"/></svg><svg viewBox="0 0 50 50" id="icon-tg" xmlns="http://www.w3.org/2000/svg"><path d="M44.377 5.986c-.487.022-.961.157-1.389.328-.423.17-2.86 1.21-6.457 2.748a20314.52 20314.52 0 0 0-12.91 5.528c-9.272 3.972-18.383 7.88-18.383 7.88l.067-.025s-.55.184-1.108.573a3.078 3.078 0 0 0-.824.81 2.145 2.145 0 0 0-.357 1.432c.237 1.925 2.232 2.47 2.232 2.47l.008.004 8.902 3.047c.227.757 2.7 9.012 3.244 10.76.3.966.582 1.524.875 1.904.147.19.301.338.471.446.068.042.139.075.209.103h.004c.009.004.017.004.025.008l-.023-.006c.016.007.032.018.049.024.031.01.05.01.092.02 1.02.355 1.863-.306 1.863-.306l.035-.027 5.469-5.072 8.875 6.92.111.05c1.553.69 2.958.305 3.736-.328s1.084-1.449 1.084-1.449l.034-.086 6.521-33.99c.167-.76.19-1.418.033-2.012-.157-.594-.54-1.11-1.02-1.396a2.588 2.588 0 0 0-1.468-.358zm.053 2.034c.197-.01.344.013.39.04.047.028.067.024.112.192.044.167.068.52-.053 1.072l-.004.012-6.484 33.793c-.016.034-.15.347-.46.598-.314.256-.664.456-1.593.066l-9.705-7.568-.274-.215-.005.006-2.903-2.178 16.31-19.19A1 1 0 0 0 38.976 13a1 1 0 0 0-.53.168L14.844 28.902 5.928 25.85s-.886-.493-.928-.836c-.002-.02-.013-.002.033-.07.046-.07.162-.185.307-.286.29-.202.62-.324.62-.324l.034-.012.033-.013s9.112-3.91 18.383-7.881c4.636-1.986 9.312-3.988 12.908-5.526 3.596-1.537 6.194-2.644 6.414-2.732.25-.1.5-.141.698-.15zM33.613 18.793 21.244 33.346l-.006.006a1 1 0 0 0-.054.072 1 1 0 0 0-.055.084 1 1 0 0 0-.131.385 1 1 0 0 0 0 .007l-1.611 7.246c-.027-.078-.046-.106-.075-.199v-.002a2314.72 2314.72 0 0 1-3.167-10.506l17.468-11.646zM22.641 35.73l2.222 1.668-3.265 3.028 1.043-4.696z"/></svg><svg viewBox="0 0 50 50" id="icon-x" xmlns="http://www.w3.org/2000/svg"><path d="m5.92 6 14.662 21.375L6.23 44h3.18l12.576-14.578 10 14.578H44L28.682 21.67 42.199 6h-3.17L27.275 19.617 17.934 6H5.92zm3.797 2h7.164l23.322 34H33.04L9.717 8z"/></svg><svg viewBox="0 0 300 383.5" xml:space="preserve" id="logo-sui" xmlns="http://www.w3.org/2000/svg"><path d="M240.1 159.9c15.6 19.6 25 44.5 25 71.5s-9.6 52.6-25.7 72.4l-1.4 1.7-.4-2.2c-.3-1.8-.7-3.7-1.1-5.6-8-35.3-34.2-65.6-77.4-90.2-29.1-16.5-45.8-36.4-50.2-59-2.8-14.6-.7-29.3 3.3-41.9 4.1-12.6 10.1-23.1 15.2-29.4l16.8-20.5c2.9-3.6 8.5-3.6 11.4 0l84.5 103.2zm26.5-20.5L154.2 2c-2.1-2.6-6.2-2.6-8.3 0L33.4 139.4l-.4.5c-20.6 25.7-33 58.3-33 93.8 0 82.7 67.2 149.8 150 149.8s150-67.1 150-149.8c0-35.5-12.4-68.1-33.1-93.8l-.3-.5zM60.3 159.5l10-12.3.3 2.3c.2 1.8.5 3.6.9 5.4 6.5 34.1 29.8 62.6 68.6 84.6 33.8 19.2 53.4 41.3 59.1 65.6 2.4 10.1 2.8 20.1 1.8 28.8l-.1.5-.5.2c-15.2 7.4-32.4 11.6-50.5 11.6-63.5 0-115-51.4-115-114.8 0-27.2 9.5-52.3 25.4-71.9z"/></svg></svg>