<?xml version="1.0" encoding="utf-8"?><svg viewBox="0 0 66.667 66.667" xmlns="http://www.w3.org/2000/svg" xmlns:xlink="http://www.w3.org/1999/xlink"><style>:root>svg{display:none}:root>svg:target{display:block}</style><svg class="aw-[16px] ah-[16px] a-translate-y-[4px] aabsolute aright-[2px]" data-sentry-element="svg" data-sentry-component="HotIcon" data-sentry-source-file="icons.tsx" viewBox="0 0 18 18" id="icon-fire" xmlns="http://www.w3.org/2000/svg"><path fill-rule="evenodd" clip-rule="evenodd" d="M11.154 2.298A.9.9 0 0 0 9.85 1.95c-.311.208-.553.503-.74.792a6.3 6.3 0 0 0-.513 1.004c-.3.724-.553 1.592-.755 2.461a28.228 28.228 0 0 0-.553 3.222 2.376 2.376 0 0 1-.85-.96c-.295-.613-.358-1.38-.358-2.388a.9.9 0 0 0-1.537-.637A6.283 6.283 0 0 0 2.7 9.9a6.3 6.3 0 1 0 10.755-4.455c-.532-.532-.882-.887-1.213-1.32-.327-.429-.652-.957-1.087-1.827Zm-.246 11.311A2.7 2.7 0 0 1 6.3 11.7s.791.45 2.25.45c0-.9.45-3.6 1.125-4.05.45.9.707 1.164 1.234 1.69.528.528.791 1.219.791 1.91 0 .691-.263 1.382-.79 1.91Z" data-sentry-element="path" data-sentry-source-file="icons.tsx"/><path fill-rule="evenodd" clip-rule="evenodd" d="M11.154 2.298A.9.9 0 0 0 9.85 1.95c-.311.208-.553.503-.74.792a6.3 6.3 0 0 0-.513 1.004c-.3.724-.553 1.592-.755 2.461a28.228 28.228 0 0 0-.553 3.222 2.376 2.376 0 0 1-.85-.96c-.295-.613-.358-1.38-.358-2.388a.9.9 0 0 0-1.537-.637A6.283 6.283 0 0 0 2.7 9.9a6.3 6.3 0 1 0 10.755-4.455c-.532-.532-.882-.887-1.213-1.32-.327-.429-.652-.957-1.087-1.827Zm-.246 11.311A2.7 2.7 0 0 1 6.3 11.7s.791.45 2.25.45c0-.9.45-3.6 1.125-4.05.45.9.707 1.164 1.234 1.69.528.528.791 1.219.791 1.91 0 .691-.263 1.382-.79 1.91Z" data-sentry-element="path" data-sentry-source-file="icons.tsx"/></svg><svg version="1.0" viewBox="0 0 50 50" id="icon-moon" xmlns="http://www.w3.org/2000/svg"><path d="M20.9 5.8C7.9 12.6 5.1 29.6 15.3 40c6 6.2 15 8.5 22.6 5.9 4.1-1.4 3.9-3-.6-6C32.8 37.1 29 30.1 29 25s3.8-12.1 8.3-14.9c4.5-3 4.7-4.6.6-6-5.5-1.9-11.3-1.3-17 1.7zm9.8 5.1c-7.5 8.3-7.5 19.9 0 28.2l3.5 3.9h-3.4c-1.8 0-5.4-1-7.8-2.2C9.8 34.1 9.8 15.9 23 9.2 25.4 8 29 7 30.8 7h3.4l-3.5 3.9z"/></svg><svg viewBox="0 0 24 24" id="icon-sun" xmlns="http://www.w3.org/2000/svg"><path d="M11 0v3h2V0h-2zM4.223 2.809 2.809 4.223l2.12 2.12L6.345 4.93 4.223 2.809zm15.554 0-2.12 2.12 1.413 1.415 2.121-2.121-1.414-1.414zM12 5c-3.854 0-7 3.146-7 7s3.146 7 7 7 7-3.146 7-7-3.146-7-7-7zm0 2c2.773 0 5 2.227 5 5s-2.227 5-5 5-5-2.227-5-5 2.227-5 5-5zM0 11v2h3v-2H0zm21 0v2h3v-2h-3zM4.93 17.656l-2.121 2.121 1.414 1.414 2.12-2.12-1.413-1.415zm14.14 0-1.414 1.414 2.121 2.121 1.414-1.414-2.12-2.12zM11 21v3h2v-3h-2z"/></svg></svg>